<?xml version="1.0" encoding="UTF-8" standalone="no"?>
<svg
   xmlns:dc="http://purl.org/dc/elements/1.1/"
   xmlns:cc="http://creativecommons.org/ns#"
   xmlns:rdf="http://www.w3.org/1999/02/22-rdf-syntax-ns#"
   xmlns:svg="http://www.w3.org/2000/svg"
   xmlns="http://www.w3.org/2000/svg"
   xmlns:sodipodi="http://sodipodi.sourceforge.net/DTD/sodipodi-0.dtd"
   xmlns:inkscape="http://www.inkscape.org/namespaces/inkscape"
   width="240.95097mm"
   height="117.54738mm"
   viewBox="0 0 240.95097 117.54738"
   version="1.1"
   id="svg8"
   inkscape:version="1.0.1 (c497b03c, 2020-09-10)"
   sodipodi:docname="RippleDEXWhite.svg">
  <defs
     id="defs2">
    <style
       id="style44">.cls-1{fill:#7bcfeb;}.cls-2{fill:#feffff;}</style>
    <style
       id="style73">.cls-1{fill:#7bcfeb;}.cls-2{fill:#feffff;}</style>
    <style
       id="style102">.cls-1{fill:#7bcfec;}.cls-2{fill:#7bcfeb;}</style>
  </defs>
  <sodipodi:namedview
     id="base"
     pagecolor="#ffffff"
     bordercolor="#666666"
     borderopacity="1.0"
     inkscape:pageopacity="0.0"
     inkscape:pageshadow="2"
     inkscape:zoom="0.33434505"
     inkscape:cx="475.49331"
     inkscape:cy="258.72541"
     inkscape:document-units="mm"
     inkscape:current-layer="g123"
     inkscape:document-rotation="0"
     showgrid="false"
     fit-margin-top="0"
     fit-margin-left="0"
     fit-margin-right="0"
     fit-margin-bottom="0"
     inkscape:window-width="1252"
     inkscape:window-height="786"
     inkscape:window-x="0"
     inkscape:window-y="25"
     inkscape:window-maximized="0" />
  <metadata
     id="metadata5">
    <rdf:RDF>
      <cc:Work
         rdf:about="">
        <dc:format>image/svg+xml</dc:format>
        <dc:type
           rdf:resource="http://purl.org/dc/dcmitype/StillImage" />
        <dc:title></dc:title>
      </cc:Work>
    </rdf:RDF>
  </metadata>
  <g
     inkscape:label="Layer 1"
     inkscape:groupmode="layer"
     id="layer1"
     transform="translate(19.97427,-79.712234)">
    <g
       id="g123"
       transform="matrix(0.26458333,0,0,0.26458333,-19.963687,79.712234)">
      <path
         class="cls-1"
         d="m 127,377.8 c 3.3,3.7 6,7.9 9.6,11.36 12.85,12.25 28.27,19.59 45.29,23.85 a 153.74,153.74 0 0 0 41.4,4.53 c 22.33,-0.59 43.95,-4.67 64.1,-14.85 a 98.15,98.15 0 0 0 19.28,-12.86 5.51,5.51 0 0 1 3.9,-1.41 q 18.12,0.06 36.24,0 c 2.32,0 3.57,0.38 3.76,3.21 a 146.34,146.34 0 0 0 11.18,46.54 c 10.42,25.11 26.51,46.21 46.63,64.25 21.08,18.91 45.24,32.86 71.61,43.06 a 269.59,269.59 0 0 0 61.89,15.78 c 9.42,1.24 18.89,1.94 28.41,2.27 a 272.19,272.19 0 0 0 104.09,-16.74 c 26.73,-9.8 51.21,-23.58 72.77,-42.37 19.44,-16.94 35.32,-36.61 46.27,-60.05 a 145.73,145.73 0 0 0 13.43,-47.65 c 0.09,-0.88 0.37,-1.74 0.49,-2.61 0.76,-5.66 0.76,-5.66 6.62,-5.66 10.53,0 21.06,0.08 31.59,-0.05 a 9.72,9.72 0 0 1 6.94,2.31 c 15.28,13 33.39,19.71 52.72,23.65 a 152,152 0 0 0 34.93,3.2 c 20.59,-0.61 40.76,-3.62 59.4,-13.14 12.18,-6.22 23,-14.16 30.48,-25.93 3.28,-5.15 5.84,-10.63 6.56,-16.84 1.5,0.34 1,1.32 1,1.92 q 0,44.73 0.07,89.45 a 3.22,3.22 0 0 1 -2.5,3.59 c -15.33,5.68 -31.22,8.79 -47.36,11 -22.69,3.16 -45.49,3.06 -68.27,2.44 -12.34,-0.33 -24.67,-1.65 -37,-2.88 -13.64,-1.37 -27.15,-3.55 -40.69,-5.58 -2.4,-0.36 -3.64,0.45 -4.42,2.76 -9,26.51 -22.86,50.35 -40.61,71.87 -20.13,24.41 -44.22,44.21 -71.64,60 a 284.71,284.71 0 0 1 -74.67,29.86 307.12,307.12 0 0 1 -43.42,7.25 c -10.72,1 -21.43,1.11 -32.16,1.17 -21.45,0.12 -42.54,-2.79 -63.4,-7.49 a 278.8,278.8 0 0 1 -67.49,-24.64 275.58,275.58 0 0 1 -51.73,-34.68 249.09,249.09 0 0 1 -52.08,-61.13 206.8,206.8 0 0 1 -19.37,-41.43 c -1.11,-3.3 -2.75,-3.91 -5.86,-3.41 -15.15,2.44 -30.36,4.39 -45.63,6 a 517.28,517.28 0 0 1 -70.28,2.3 274.33,274.33 0 0 1 -47.67,-5.53 c -8.23,-1.71 -16.33,-3.91 -24.39,-6.27 z"
         transform="translate(-127.04,-190.23)"
         id="path108"
         style="fill:#ffffff" />
      <path
         class="cls-2"
         d="m 590,190.23 c 3.14,1.35 6.57,1.51 9.84,2.35 17.27,4.45 31.09,13.91 42.56,27.45 9.24,10.97 14.6,23.46 17.6,37.22 1.27,5.9 0.2,11.93 0.64,17.88 0.79,10.67 -1.94,20.67 -6.17,30.18 -7.56,17 -19.61,30 -35.89,39.39 -15.51,8.91 -32.24,11.19 -49.49,9.65 a 75.69,75.69 0 0 1 -39.4,-15.65 83.83,83.83 0 0 1 -21.2,-22.93 c -7.17,-11.69 -11.74,-24.31 -11.69,-38.3 0,-10.27 -0.11,-20.45 3.29,-30.43 a 86.16,86.16 0 0 1 21.35,-34 c 8.81,-8.74 19.26,-14.69 30.71,-19 a 63.75,63.75 0 0 1 13.81,-3.12 c 0.55,-0.08 1.1,-0.11 1.43,-0.65 z"
         transform="translate(-127.04,-190.23)"
         id="path110"
         style="fill:#ffffff" />
      <path
         class="cls-1"
         d="m 930.54,254.58 c -0.41,8.4 0.59,16.82 -0.66,25.22 -2.57,17.27 -10.25,31.67 -23.86,42.71 -14.07,11.41 -30.66,16.88 -48.19,20 -14.79,2.63 -29.74,2.68 -44.63,1.86 a 285.68,285.68 0 0 1 -52,-8.13 c -2.79,-0.69 -3.7,0.08 -4.31,2.64 a 274.53,274.53 0 0 1 -25,66.3 c -12.33,23 -27.83,43.71 -47.36,61.12 -21,18.71 -44.8,32.39 -72.42,38.76 -32.46,7.48 -63.89,4.25 -94.31,-9.34 -23.46,-10.47 -43.29,-25.87 -60.37,-44.81 -20.85,-23.14 -36,-49.77 -46.89,-78.89 a 260.54,260.54 0 0 1 -10.07,-33.34 c -0.6,-2.62 -1.67,-3.06 -4.17,-2.48 a 313.55,313.55 0 0 1 -48.67,7.8 c -18.85,1.31 -37.64,1.23 -56.09,-3 -17.82,-4.11 -34.3,-11.2 -47.1,-25 a 63.6,63.6 0 0 1 -17,-37.75 C 226,264 227,249.66 227,235.38 c 0,-2.95 0.84,-5.89 1.17,-8.86 0.17,-1.53 0.74,-1.86 2.17,-1.34 10.09,3.65 20.31,6.94 30.66,9.8 a 2.92,2.92 0 0 1 2.41,2.73 c 2.33,17.25 11.39,30.46 25,40.76 10.52,8 22.63,11.76 35.7,12.94 A 77.87,77.87 0 0 0 376.86,277.53 59.25,59.25 0 0 0 390,265 a 5,5 0 0 1 4.41,-2.33 q 11.81,0.18 23.61,0 c 2.29,0 3,0.7 3.09,3 2.48,42.36 15.83,80.8 42.42,114.14 19.38,24.29 43.78,41.78 73.45,51.52 a 131.11,131.11 0 0 0 35.11,6.39 c 37,1.68 69.24,-10.64 97.73,-33.67 20.16,-16.29 35.28,-36.59 46.54,-59.78 a 197.24,197.24 0 0 0 18,-59.45 184.85,184.85 0 0 0 1.89,-19.78 c 0.06,-1.7 0.65,-2.37 2.35,-2.36 q 12.65,0.06 25.27,0 c 1.6,0 2.4,1 3.23,2 13.45,16.43 31.07,24.81 52,26.67 19.12,1.7 36.75,-2.35 52,-14.53 12.56,-10.04 20.78,-22.82 22.9,-39.04 a 2.94,2.94 0 0 1 2.36,-2.78 c 10.34,-2.9 20.59,-6.06 30.66,-9.81 1.73,-0.64 1.93,0.1 2.29,1.58 1.87,7.65 1.09,15.42 1.23,23.15 0.02,1.56 0,3.08 0,4.66 z"
         transform="translate(-127.04,-190.23)"
         id="path112"
         style="fill:#ffffff" />
    </g>
  </g>
</svg>
